<?xml version="1.0" encoding="utf-8" ?>
<svg xmlns="http://www.w3.org/2000/svg" xmlns:xlink="http://www.w3.org/1999/xlink" width="1366" height="247">
	<path fill="#E07A5F" d="M845.743 102.471C850.533 101.918 855.637 102.262 860.466 102.253C868.864 102.238 877.265 102.161 885.659 102.418C886.139 103.32 886.595 104.36 886.756 105.377C887.213 108.246 886.894 111.682 886.887 114.601C886.873 120.6 886.808 126.599 886.792 132.598C886.786 135.075 887.395 139.569 886.754 141.858C886.589 142.445 885.455 143.637 885.053 144.189C881.389 144.924 876.447 144.35 872.656 144.351C863.159 144.354 853.662 144.351 844.165 144.346L844.675 143.438C845.718 141.373 845.223 137.562 845.22 135.177C845.213 128.076 845.165 120.974 845.137 113.872C845.122 110.212 844.636 105.963 845.743 102.471Z"/>
	<path fill="#3D405B" d="M1175.72 134.515C1180.25 133.8 1185.34 134.224 1189.93 134.218C1198.71 134.207 1207.49 134.196 1216.27 134.354C1217.06 135.253 1217.43 136.173 1217.56 137.36C1218.15 143.035 1217.73 149.168 1217.73 154.891C1217.75 165.762 1217.76 176.632 1217.76 187.502C1217.76 199.602 1217.75 211.702 1217.74 223.801C1217.74 230.09 1218.15 236.659 1217.61 242.907C1217.51 244.097 1216.97 245.083 1216.23 245.999C1214.08 246.901 1209.14 246.251 1206.69 246.259C1196.07 246.297 1185.46 246.25 1174.85 246.219C1176.46 243.461 1175.79 239.272 1175.79 236.135C1175.79 229.737 1175.78 223.339 1175.78 216.941C1175.76 189.476 1175.37 161.974 1175.72 134.515Z"/>
	<path fill="#E07A5F" d="M1220.35 1.00132L1258.55 0.763406C1258.94 1.3121 1259.3 1.9123 1259.49 2.56142C1260.42 5.61039 1260.43 38.4595 1259.31 40.4687L1258.67 41.4957C1251 41.4459 1243.33 41.4076 1235.66 41.4337C1231.09 41.4492 1225.97 41.0933 1221.6 42.6262C1213.82 45.3498 1220.3 63.5042 1217.3 69.6329L1216.78 70.61L1216.68 70.7637L1258.62 71.0665L1259.2 71.9206L1259.72 73.122C1260.53 76.3674 1260.3 110.223 1258.95 112.341L1256.11 112.519L1174.88 112.509C1176.63 108.841 1175.79 102.799 1175.78 98.757C1175.75 88.7764 1175.72 78.7957 1175.72 68.8151C1175.7 52.2544 1175.87 34.8101 1185.75 20.6767C1194 8.89193 1206.61 3.42004 1220.35 1.00132Z"/>
	<path fill="#E07A5F" d="M507.95 134.514L547.768 134.302L548.352 135.097C549.478 136.816 548.986 140.967 548.989 143.086C549 150.744 548.961 158.402 548.939 166.06C548.907 176.871 547.943 190.02 556.236 198.354C560.381 202.52 566.188 203.875 571.819 204.645C582.453 206.099 594.79 204.956 605.588 204.962C629.901 204.975 654.216 204.916 678.529 205.007L679.032 205.703C680.225 207.561 679.63 213.028 679.633 215.313C679.648 225.318 679.6 235.327 679.464 245.331L677.169 246.331L578.282 246.26C559.621 246.041 540.925 240.199 527.631 226.467C520.141 218.729 513.5 208.674 510.429 198.254C507.404 187.989 507.812 177.35 507.815 166.784C507.819 156.029 507.806 145.269 507.95 134.514Z"/>
	<path fill="#3D405B" d="M837.245 1.00068C841.946 0.394861 846.942 0.905244 851.679 0.960326C859.734 1.05399 867.796 0.990363 875.851 0.991559C903.73 0.995699 931.662 0.610688 959.535 1.08573L960.067 2.0291L960.294 2.50868C961.343 5.0986 961.179 38.2326 960.08 40.6788L959.477 41.8799C949.76 42.9051 938.979 41.979 929.166 41.9781C907.63 41.9759 886.094 41.9795 864.558 41.9827C855.847 41.984 846.028 41.0825 837.435 42.2656C828.781 43.4573 819.725 46.9256 816.162 55.6037C815.159 58.0453 814.886 60.8586 813.241 62.9763L813.151 63.0893L813.457 64.1755C814.073 67.0107 812.947 71.6904 812.928 74.7676C812.839 89.2262 812.907 103.689 812.902 118.149C812.9 125.377 813.245 132.804 812.784 140.016C812.684 141.567 812.256 142.877 811.399 144.186L770.421 144.248C772.383 141.039 771.469 134.625 771.471 130.902C771.478 117.218 771.487 103.534 771.505 89.85C771.521 78.2608 771.023 66.3811 773.6 54.9992C776.076 44.0663 781.087 33.633 788.243 25.0175C800.496 10.2668 818.52 2.74062 837.245 1.00068Z"/>
	<path fill="#3D405B" d="M919.184 102.471C923.89 101.847 928.986 102.238 933.748 102.227C942.389 102.207 951.035 102.123 959.673 102.368L960.118 103.391C961.096 105.889 960.605 109.779 960.616 112.457C960.647 119.944 960.65 127.431 960.648 134.918C960.638 166.075 964.188 201.017 940.099 225.071C917.376 247.761 888.896 246.263 859.304 246.284C843.39 246.296 827.476 246.282 811.563 246.26L770.508 246.196L771.018 245.399L771.37 244.673C772.334 242.076 772.082 207.94 771.024 205.671L770.407 204.487L888.774 204.283C896.481 204.202 905.612 202.95 911.255 197.15C914.564 193.749 916.698 189.272 917.718 184.665C920.196 173.477 919.266 160.485 919.275 149.086C919.286 133.549 919.377 118.006 919.184 102.471Z"/>
	<path fill="#3D405B" d="M608.474 71.0959C623.6 70.0905 638.76 75.6391 651.144 83.8865C665.123 93.1962 674.431 109.753 677.638 125.935C680.189 138.807 679.533 152.511 679.523 165.594C679.52 170.074 680.522 177.631 677.972 181.458L570.196 181.516L570.661 180.815L570.982 180.175C571.86 177.891 571.691 143.107 570.771 141.182L570.243 140.194L587.453 140.204L636.886 139.987C637.328 139.287 637.581 138.344 637.587 137.519C637.63 131.108 635.287 123.212 630.686 118.622C627.516 115.459 621.963 113.678 617.61 113.009C605.982 111.222 592.526 112.422 580.725 112.418C556.066 112.41 531.406 112.425 506.746 112.445L507.398 111.368L507.847 110.39C508.854 107.684 508.592 74.6356 507.468 72.3878L506.765 71.1337L608.474 71.0959Z"/>
	<path fill="#3D405B" d="M1282.55 1.00123L1322.36 0.845627L1323.38 2.67027C1323.41 19.4903 1323.43 36.3102 1323.47 53.1303C1323.48 56.7231 1324.55 66.6196 1322.84 69.5616L1322.15 70.6228L1364.24 71.1961L1364.72 71.8812L1365.16 72.8481C1365.99 76.0734 1365.74 109.381 1364.62 111.309L1363.92 112.388L1322.36 112.597C1324.86 116.705 1323.47 128.406 1323.47 133.573C1323.46 150.675 1323.45 167.778 1323.44 184.88C1323.43 189.109 1322.28 197.284 1323.84 200.891C1327.62 209.619 1355.88 202.224 1364.03 205.509L1364.13 205.554L1364.68 206.292L1365.12 207.146C1366.02 209.801 1365.75 243.164 1364.73 245.164L1364.1 246.263C1348.76 246.324 1333.32 247.026 1318.22 243.908C1307.49 241.693 1296.7 232.98 1290.8 223.954C1286.4 217.225 1283.27 208.985 1282.35 200.929C1281.06 189.68 1282.1 177.123 1282.09 165.743C1282.08 141.53 1282.07 117.316 1282.06 93.103C1282.06 71.8517 1282.06 50.6003 1282.07 29.349C1282.08 20.6443 1280.8 9.42067 1282.55 1.00123Z"/>
	<path fill="#3D405B" d="M401.654 1.00061L441.81 0.836324L442.359 1.61637L442.594 2.0169C443.787 4.40475 442.965 11.494 442.968 14.316C442.981 29.3548 442.905 44.3933 442.892 59.4319C442.89 62.4022 443.813 67.2388 442.917 69.8972L442.575 70.8035L483.801 71.1941L484.424 72.1228L484.855 72.9717C485.623 74.9575 485.633 108.98 484.716 110.997L484.018 112.363L442.215 112.582C444.024 116.888 442.949 125.187 442.941 130.001C442.917 145.566 442.878 161.131 442.89 176.697C442.896 183.573 442.234 191.343 443.055 198.107C443.27 199.88 444.112 201.382 445.005 202.9C449.211 206.907 476.466 204.804 483.839 205.276L485.325 206.946C484.413 216.198 485.139 226.119 485.101 235.451C485.089 238.258 485.652 242.53 484.555 245.02L483.943 246.272L461.253 246.25C445.849 246.103 429.069 243.961 417.725 232.346C412.589 227.088 406.747 219.504 404.892 212.264C401.014 197.129 401.557 181.884 401.545 166.397C401.532 151.973 401.529 137.549 401.528 123.124C401.525 82.4255 401.215 41.6961 401.654 1.00061Z"/>
	<path fill="#3D405B" d="M145.298 0.842365L186.081 0.787121L186.093 72.8507C186.093 90.1141 186.091 107.378 186.083 124.641C186.076 138.726 186.598 153.079 184.69 167.068C181.968 187.032 173.705 205.721 159.388 220.013C127.453 251.891 80.9016 246.277 39.686 246.253L0.837081 246.236L0.742992 205.088C21.7312 205.084 42.7194 205.079 63.7076 205.064C76.7337 205.055 90.7105 205.991 103.558 203.818C113.039 202.215 122.894 199.275 130.14 192.663C137.808 185.666 141.074 176.544 143.008 166.558C146.384 149.129 145.075 130.486 145.077 112.775C145.08 89.1324 145.07 65.49 145.064 41.8476C145.06 28.2116 144.67 14.4566 145.298 0.842365Z"/>
	<path fill="#3D405B" d="M210.493 246.381L208.435 245.602C207.013 233.107 208.136 219.288 208.138 206.665C208.143 172.698 204.226 134.127 226.819 105.686C240.93 87.9236 262.989 75.0951 285.725 72.5693C307.341 70.168 329.301 70.9543 351.034 70.9652C359.706 70.9696 369.86 69.9931 378.338 71.3929L379.01 72.5346C380.603 75.5543 379.934 148.136 379.266 156.858C378.608 165.451 377.292 174.764 374.643 182.979C368.126 203.191 355.246 223.003 335.822 232.942C318.048 242.036 301.29 245.586 281.414 246.415L281.428 247L210.661 247L210.493 246.381ZM304.447 112.485C288.796 113.254 272.789 114.655 261.583 127.032C246.085 144.149 249.512 172.47 249.533 193.925C249.535 196.495 250.111 201.291 248.914 203.525L248.372 204.432L281.304 204.298C297.439 204.19 313.585 202.714 325.531 190.586C335.811 180.149 337.163 165.012 337.864 151.195C338.38 141.02 338.327 130.835 338.238 120.647C338.211 117.547 338.336 115.639 336.975 112.8L336.908 112.668L304.447 112.485ZM210.493 246.381L210.661 247L281.428 247L281.414 246.415L210.493 246.381Z"/>
	<path fill="#8E8E8E" fill-opacity="0.011764706" d="M210.493 246.381L281.414 246.415L281.428 247L210.661 247L210.493 246.381Z"/>
	<path fill="#3D405B" d="M984.391 246.383L982.641 245.597C981.148 232.896 982.278 218.734 982.265 205.878C982.254 195.501 982.246 185.124 982.252 174.747C982.255 168.057 982.006 161.007 982.752 154.36C984.798 136.132 991.42 118 1002.83 103.588C1016.19 86.7124 1038.79 75.0335 1060.05 72.5819C1082.1 70.0385 1104.63 70.9697 1126.83 71.0136C1135.1 71.03 1144.55 70.1831 1152.7 71.2665L1153.34 72.3186C1154.69 74.7811 1154.25 149.947 1153.6 158.287C1152.99 166.036 1151.47 173.989 1149.21 181.428C1142.44 203.688 1129.63 222.486 1108.74 233.585C1092.01 242.476 1074.57 245.614 1055.79 246.415L1055.81 247L984.388 247L984.391 246.383ZM1078.82 112.485C1063.51 113.239 1046.89 114.588 1035.92 126.678C1020.43 143.757 1023.67 173.108 1023.67 194.593C1023.67 197.119 1024.26 201.377 1023.05 203.49L1022.48 204.37L1055.01 204.302C1068.41 204.226 1087.47 203.222 1097.7 192.963C1111.68 178.95 1111.84 161.21 1111.91 142.77C1111.94 134.305 1112.14 125.828 1112.08 117.365C1112.07 116.004 1112.16 114.831 1111.48 113.601L1110.93 112.715L1078.82 112.485ZM984.391 246.383L984.388 247L1055.81 247L1055.79 246.415L984.391 246.383Z"/>
	<path fill="#8E8E8E" fill-opacity="0.011764706" d="M984.391 246.383L1055.79 246.415L1055.81 247L984.388 247L984.391 246.383Z"/>
</svg>
